<svg xmlns="http://www.w3.org/2000/svg" viewBox="0 0 520.13 81.16"><defs><style>.cls-1{fill:#3a3a3a;}.cls-2{fill:#4c9ae0;stroke:#3a3a3a;stroke-linecap:round;stroke-miterlimit:10;stroke-width:3px;}</style></defs><title>islet_title</title><g id="图层_2" data-name="图层 2"><g id="图层_1-2" data-name="图层 1"><path class="cls-1" d="M93.48,34.64c5.4-6.94,11-13.68,15.81-21.2l-12-7.76c-.14.31-.24.51-.33.72C92.53,16.57,80.74,36.25,80.74,36.25h0s1.76,5,2.56,7.24a1.39,1.39,0,0,0,1.77,1.1c1.82-.27,10.26-1,13-1.2-.55.93-11.17,15.8-16.93,22a1.62,1.62,0,0,0-.38,2.23c1.8,3.21,3.55,6.46,5.2,9.75a1.54,1.54,0,0,0,2.07.92c2.84-.74,26.61-5.87,26.61-5.87a32.49,32.49,0,0,1,2.46,6l6.51-3.28s.75,5.53,1.1,8.15h0l4.44-.34s7.43-1,11.08-1.75c7-1.49,12.54-8.51,12.74-15.58.46-16,1.45-52.59,1.45-54.89l-36.83,1.31V23.73l25.65-2.93c0,.64-1.55,24.87-2.34,36.66a62.46,62.46,0,0,1-.61,6.7,6,6,0,0,1-5.91,5.31c-2.53.16-8.9.27-8.9.27a115.66,115.66,0,0,1-8.88-21.65l-11.31,5.07,5.51,10.51L94.72,65.5c9.21-12.26,17.5-24.86,25.41-37.67l-11-4.5a66.3,66.3,0,0,1-5.61,9.89Z" transform="translate(0 -2.17)"/><path class="cls-1" d="M163.42,32.24c-1-4.61-1.91-9-2.87-13.46l31.59-.54A31.26,31.26,0,0,0,185.41,9l11.45-6.78c2.25,4.71,4.6,9.65,7,14.69l-3.51,1.05,0,.32h28.44c0,3.39.06,6.55,0,9.7,0,.62-.66,1.28-1.15,1.8A182,182,0,0,1,196.77,55.5c-3.52,2.38-7.1,4.68-11.12,7.33l47.29,5L229,80.5c-2.77-.47-5.81-1-8.85-1.51q-24.66-4.27-49.34-8.53a3.2,3.2,0,0,0-2.15.53c-1.83,1.26-3.57,2.66-5.27,4-1.73-4.83-3.42-9.52-5.14-14.32,4.88-2.2,9.92-4.19,14.71-6.69,9.68-5.06,23.91-12.08,39.65-25.21Z" transform="translate(0 -2.17)"/><path class="cls-1" d="M13.13,63.36c-.81.66-1.32.62-2.16-.15-2.57-2.39-5.28-4.62-8-7,3.55-2.08,7-4,10.44-6.12a37.11,37.11,0,0,0,9.42-8l-7,1.24V30.61l-9.71,11L0,33.67l12.76-11L12.39,22l-11,3V14.41l14.46-.68L14.36,5.27,25.1,3.7v9.16L35.91,11V21l-10.61.84-.17.57,10.3,5.2L30.5,34.69l-5.24-3.88v7.37l10.15,2.89-2.5,3.73,33.65-1.44c.22,1.94.44,3.86.65,5.78a5.91,5.91,0,0,0,.08,1.2c.09,3.26-.4,4.9-2.21,6.95C60,63.08,53.62,67,47,70.79c-10.34,5.92-21.62,9-33.24,11.09-1.87.33-3.76.54-5.62.92a1.24,1.24,0,0,1-1.69-.91c-1.33-3.6-2.72-7.19-4.15-11,8.26-.06,16.48-.08,24.86-2.75l-6.48-6.67,6.54-5.89c3.3,2.75,10,8.34,10,8.34s9.9-3.49,16.08-10.87c-5.11,0-10.06,0-15,0q-6,.07-11.92.36" transform="translate(0 -2.17)"/><path class="cls-1" d="M259.65,4.64c-.49,19.63-1,38.45-1.46,57.68.31.06,4.27-1.15,4.27-1.15l.3-41.84s6.32-1.43,9-2c-.21,19.61-.42,39-.63,58.65l-8.79,1.56V71.08l-23.56,3.7c-1.11-18.78-2.2-37.33-3.3-56l10.83-1.59V64.7c1-.26,4.3-1,4.3-1S250,45,249.74,36.39q-.26-10.89-.52-21.78c-.05-1.79-.08-6.53-.08-6.53S256.18,5.8,259.65,4.64Z" transform="translate(0 -2.17)"/><path class="cls-1" d="M283.81,37.22l28.69-.86c0,.93,0,1.83,0,2.72,0,18.71-2.26,33.32-2.91,35.21-1.8,5.23-5.55,8.14-11.11,8.3s-11.28,0-17,0c-.58-3.7-1.19-7.63-1.82-11.69,3.53.49,11.6,1.63,12,1.66,6.15.45,8.66-1.8,9.22-7.94.51-5.62,1.25-11.21,1.87-16.82.12-1.08.14-2.16.22-3.5l-28.8,2.23C274.8,33.34,275.4,20.2,276,6.78l11.45-1.07-1.1,11.77,27-3c-.42,3.72-.81,7.24-1.23,10.94l-11.55.47c-4.6.19-9.2.37-13.8.61-.48,0-1.3.37-1.35.68C284.82,30.42,284.35,33.71,283.81,37.22Z" transform="translate(0 -2.17)"/><path class="cls-1" d="M50.61,42V29.44L39.4,41.56l-6.33-7.13A46.28,46.28,0,0,0,46.84,22l-7.08,1.86-.71-8.95,11.55-.76c-.41-3-.79-5.87-1.19-8.87l10.4-2.4V13.38L74,11.46v9.81l-10.54.58a44.86,44.86,0,0,0,13.87,11.2l-5.83,8.8c-4.78-3.05-8.17-7.36-11.64-11.91,0,2.19,0,10.56,0,10.56l-4,.62Z" transform="translate(0 -2.17)"/><path class="cls-1" d="M273.67,54.6,299,53.43v9.11l-25.31,2Z" transform="translate(0 -2.17)"/><line class="cls-2" x1="341.05" y1="2.18" x2="341.05" y2="78.97"/><path class="cls-1" d="M372.94,45.48c-.87-1.59-1.78-3.2-2.71-4.85a166.3,166.3,0,0,0,26.11-16.25l3.45,4.35A259.83,259.83,0,0,1,372.94,45.48ZM371.46,74V68.87h68.22V74Zm1.15-45V13.79H438.7V29.06H433V19H378.28v10Zm7.15,20.28v-5h51.71v5Zm25.12-34.56q-2-5-4-10.1l6.24-1q1.89,4.94,3.78,9.77Zm-2.3,56.64V46.54h6.15V71.42Zm35.87-26.11Q425.31,36.7,412.1,28.73l3.12-4.35q13.71,8.21,26.19,16Z" transform="translate(0 -2.17)"/><path class="cls-1" d="M455.85,66.41V50.73h5.42V61.81h35.14v-11h5.33v15.6Zm36.61,10c-.27-1.76-.6-3.53-1-5.34l12.07.16q5.42,0,7.55-1.8c1.42-1.32,2.27-3.64,2.54-7q.33-8.86.66-17.81H461.19V11.74h51.39l-.66,12.48q-.41,5.82-2.87,8.21c-1.64,1.64-4.33,2.49-8.05,2.54-3.34,0-6.67,0-10,.08q-.42-2.53-.9-5,4.67.18,9.35.25,3.62,0,5.26-1.39c1-1,1.58-2.71,1.8-5.18.17-1.91.28-4.35.33-7.3H466.77V40h53.36q-.33,12.06-.9,23-.42,7.4-3.53,10.26t-10.76,3.12Q498.7,76.43,492.46,76.43Zm-3.2-45.15q-7.22-3.95-14.77-7.56l3.28-3.85q8.13,3.6,14.94,7.22ZM476.05,64V47.86h5.5V64Zm6.07-49.42-5.42-1q2.31-5.34,3.86-10l6.08.74C485.27,7.63,483.76,11.06,482.12,14.61Z" transform="translate(0 -2.17)"/></g></g></svg>