<svg xmlns="http://www.w3.org/2000/svg" viewBox="0 0 185 185"><title>logo_circle</title><g id="图层_2" data-name="图层 2"><g id="图层_1-2" data-name="图层 1"><g id="logo"><path d="M86,150.06l-7.18-.76-23.52-2.49-12-1.26,2.93-1.92c1.9-1.24,3.72-2.43,5.5-3.61.89-.59,1.77-1.17,2.65-1.77a183.93,183.93,0,0,0,29.46-24.36l-.41-6.9-.16-2.74,2.72-.4.34,0c0-.88,0-1.78,0-2.69H58l0-.32,1.78-.53,1.72-.51C59.7,96.06,58,92.43,56.28,88.91a121.17,121.17,0,0,1-12.76,3.42,42,42,0,0,1,3.25,3.75,26.12,26.12,0,0,1,3,5l-8,.14-15.72.26-7.79.14c.48,2.24.95,4.45,1.42,6.67l.72,3.34c.24,1.12.48,2.25.72,3.4l49-3.5q-2.94,2.46-5.81,4.63c-3.81,2.91-7.51,5.47-11,7.74-1.77,1.14-3.49,2.2-5.17,3.21-2.52,1.5-4.93,2.87-7.21,4.12s-4.45,2.38-6.46,3.43l-3.83,2c-1.19.63-2.4,1.22-3.61,1.79-2.44,1.14-4.91,2.2-7.37,3.26-1.23.53-2.45,1.07-3.67,1.62l2.56,7.12,2.56,7.15,2.58-2c.87-.67,1.76-1.33,2.68-2a2.63,2.63,0,0,1,.44-.24,1,1,0,0,1,.16-.06l.35-.13.19,0,.34-.06.2,0h.11a2,2,0,0,1,.35,0h0q12.3,2.1,24.58,4.24l24.58,4.27,2.27.39,6.55,1.1c.07-.21.13-.42.2-.63Z"/><path d="M99.74,40.13c.71.43,1.44.85,2.21,1.28L104.79,43,103,45.69l-5.81,8.77-1.63,2.47-2.42-1.55.24,2.19a6.38,6.38,0,0,1,0,.83v0l.06.17V59A12.24,12.24,0,0,1,92,66a.75.75,0,0,0,.06.13.25.25,0,0,0,0,.07,1.5,1.5,0,0,0,.24.31l.06,0a.92.92,0,0,0,.32.18h0a1.6,1.6,0,0,0,.4.06h.07l.38,0h0l.41,0,1.22-.14c3.14-.32,9.1-.82,11.32-1-.34.58-4.6,6.59-9.15,12.52l-1.37,1.78-2,2.58c-1.57,1.94-3.05,3.71-4.31,5.07-.13.14-.24.28-.34.41a2.24,2.24,0,0,0-.21.36.81.81,0,0,0-.08.25,1.28,1.28,0,0,0,0,.55,2.38,2.38,0,0,0,.26.65q1.35,2.4,2.64,4.83c.87,1.62,1.71,3.25,2.54,4.89h0a2.75,2.75,0,0,0,.26.42l.07.09a1.6,1.6,0,0,0,.26.26l0,0a1.37,1.37,0,0,0,.32.16l.09,0a1.08,1.08,0,0,0,.32,0h0a2.94,2.94,0,0,0,.68-.1l.49-.12c0-1.89,0-3.92,0-4L97,94l2.09-.68c.07,0,7-2.29,10.46-3.42l4-1.35-.11,4.27-.09,3.79c5.25-1.15,9.68-2.1,9.68-2.1h0s.06.1.15.28.3.58.52,1c0-.36,0-.72,0-1.08l.12-2.61,2.6-.24,6.73-.63.34,0c-1-2-2.09-4.12-3.13-6.41-1.13-2.51-2.24-5.22-3.32-8.21-.72-2-1.42-4.11-2.1-6.38l-11.27,5.05,5.5,10.48-16,1.82C112.44,75.35,120.7,62.79,128.58,50l-4.18-1.71-1.81-.74-4.94-2c-.39.9-.83,1.81-1.28,2.7-.61,1.17-1.25,2.3-1.85,3.3-1.34,2.26-2.46,3.85-2.46,3.85L102,56.8h0l4.06-5.16c1.36-1.72,2.72-3.44,4-5.18,2.67-3.48,5.26-7,7.65-10.78l-12-7.72c-.14.3-.24.5-.33.71-1.09,2.53-2.65,5.66-4.37,8.92-.42.82-.86,1.64-1.31,2.47Z"/><path d="M150.83,55.71c-.06.93-.12,1.88-.18,2.84-.19,2.91-.38,6-.58,8.94-.29,4.47-.57,8.75-.79,12.05a64.24,64.24,0,0,1-.6,6.68,7.38,7.38,0,0,1-.71,2.17A5.6,5.6,0,0,1,146.71,90a6.36,6.36,0,0,1-3.93,1.5l-.51,0-.59,0h-.23l-.24,2.5-.76,8,9.35-1,4.54-.5a17.65,17.65,0,0,0,3.15-3A17,17,0,0,0,159,95.33a16.66,16.66,0,0,0,.81-1.57,15.68,15.68,0,0,0,1.47-6.05c0-.5,0-1,.05-1.56,0-1.07.06-2.22.09-3.42.1-3.63.22-7.79.34-12.13.06-2.17.12-4.39.18-6.6l.06-2.22c.1-3.68.19-7.33.28-10.72.25-9.5.44-17,.44-18.05l-36.7,1.31V45.93L151.61,43C151.61,43.31,151.27,48.78,150.83,55.71Z"/><path d="M115.16,107l-1.54.34-.3,41.69,0,0h0l-.55.16-.14,0-.18.06-.08,0-.24.07-.2.06-.15.05-.23.06-.14,0-.25.07-.13,0-.24.07-.13,0-.21.06-.16,0-.17.05-.16,0-.15,0-.14,0-.12,0-.12,0h-.1l-.08,0h-.13l.18-7.17c.3-11.93.6-23.75.9-35.77l.18-6.93c0-1,0-2.06.08-3.09h0c0-1.5.07-3,.11-4.51l-4.83,1.59-5.64,1.83s0,.67,0,1.59c0,.47,0,1,0,1.53s0,1.1,0,1.62c0,.35,0,.68,0,1,0,.15,0,.29,0,.42v.37c.18,7.23.34,14.46.52,21.7,0,1.07.06,2.29.1,3.62,0,.66,0,1.35.06,2.06,0,1.42.08,2.9.13,4.41,0,.75,0,1.51.07,2.26.1,3,.2,6,.28,8.48,0,.62,0,1.21.06,1.76,0,1.1.07,2.06.1,2.81,0,1.12.06,1.77.06,1.77l-1.11.26-.68.16-.73.18-.35.08-1.42.36h0V105.23l-10.8,1.59q.42,7,.83,13.93c.82,13.93,1.64,27.83,2.47,41.86l17.61-2.77,5.86-.92h0v6.48l4.48-.8,4.28-.76c.1-9.79.21-19.51.31-29.23q.08-7.29.16-14.59l.15-14.62C120.75,105.77,117.2,106.56,115.16,107Z"/><path d="M134.59,125.19h0c.14-.87.27-1.73.4-2.58.39-2.55.76-5,1.21-7.45,0-.23.5-.48.94-.6a2.11,2.11,0,0,1,.4-.07c2.29-.12,4.59-.23,6.88-.33l6.88-.29,11.51-.46c.2-1.84.41-3.64.61-5.44s.4-3.61.61-5.46l-6.79.76-20.12,2.25h0c0-.17,0-.34,0-.51h0c.08-.83.16-1.66.23-2.48.09-1,.19-2,.28-2.91.18-1.94.36-3.85.54-5.83l-3,.28-8.45.78c-.07,1.67-.13,3.34-.19,5-.38,11.64-.32,23.06-.84,34.58l10.57-.81,17.37-1.34h0c0,.33,0,.65-.05.95,0,.92-.07,1.72-.16,2.53-.46,4.19-1,8.37-1.45,12.57-.15,1.39-.29,2.79-.42,4.19,0,.37-.07.72-.12,1.06,0,.11,0,.21-.05.32s-.07.45-.12.66a3.59,3.59,0,0,1-.08.35c0,.19-.08.37-.13.54a3.58,3.58,0,0,1-.11.35l-.15.47-.13.33c-.06.14-.12.28-.19.41s-.1.21-.15.3l-.21.37L150,158a3.92,3.92,0,0,1-.25.32l-.19.24c-.1.1-.2.19-.29.29l-.22.19c-.11.09-.22.18-.34.26l-.22.16-.42.23-.21.11a6,6,0,0,1-.68.28h0c-.24.08-.5.15-.76.21l-.26,0c-.19,0-.37.07-.57.09l-.35,0-.55,0h-.4l-.39,0h-.14c-.42,0-.85,0-1.31,0h0l-1-.12-6.76-.94-4.25-.59.24,1.5c.54,3.51,1.07,6.92,1.57,10.15h0c1.85,0,3.7,0,5.54,0h7.47c1.3,0,2.59,0,3.89-.06a15.8,15.8,0,0,0,2-.19,11.69,11.69,0,0,0,3.47-1.13,10.08,10.08,0,0,0,1.47-.92,12.36,12.36,0,0,0,4.14-6,12.73,12.73,0,0,0,.31-1.28c.06-.31.12-.66.19-1.05s.15-.84.22-1.32.15-1,.23-1.56c.16-1.12.33-2.4.49-3.81.08-.71.17-1.45.25-2.23.48-4.65.91-10.49,1.1-17,0-1.1.06-2.21.08-3.34s0-2.28,0-3.45c0-.44,0-.89,0-1.34s0-.9,0-1.36l-7.16.21-14.25.43-7.18.21Z"/><path d="M14.78,140.62c1.53-.69,3.09-1.37,4.61-2L23.08,137a82.2,82.2,0,0,1,.37-89.55l-1.29-1.68-1.11-1.44-1.73-2.25,2.15-1.85L25,37.15l.41-.35-3.66,1V33a92.3,92.3,0,0,0-8,108.09Z"/><path d="M132.31,173.43h-2.57l-.39-2.54,0-.13-.65-4.14a82.3,82.3,0,0,1-85.28-7.87l-15.24-2.62-.08,0c-.52.35-1,.73-1.54,1.11a92.31,92.31,0,0,0,110.67,16.18Z"/><path d="M51.44,12.62v5.57L52.52,18,58.71,17l1.12-.19a81.88,81.88,0,0,1,25.6-6.44l.6-.13v.09c2.13-.17,4.29-.28,6.47-.28a82.08,82.08,0,0,1,54.42,20.58l13.79-.5A92.37,92.37,0,0,0,51.44,9.63Z"/><path d="M165.69,36c-.08,3.67-.25,10.21-.44,17.62a82.29,82.29,0,0,1,.91,76c-.09,7.53-.53,14.53-1.08,20.18A92.28,92.28,0,0,0,165.69,36Z"/><path d="M148.13,141.83l-11.17.52-11.18.51v8.75l11.23-.87,11.12-.87Z"/><path d="M37.18,90.52l3.32-.62c2.49-.5,5-1,7.42-1.67L50,87.68l.19-.06h0c1.34-.37,2.67-.76,4-1.18q1-.33,2.07-.69l1.55-.55c.85-.31,1.7-.63,2.55-1,1.35-.54,2.69-1.11,4-1.73s2.65-1.26,4-2c.65-.34,1.3-.7,1.94-1.07,5.74-3.28,11.33-6.7,16-11.37.67-.67,1.32-1.36,2-2.08q.21-.24.39-.48l.23-.27c.18-.25.35-.49.5-.74A7.41,7.41,0,0,0,90.09,63a11.86,11.86,0,0,0,.39-3.91,1.5,1.5,0,0,1-.06-.29c0-.3,0-.61,0-.91-.21-1.92-.43-3.83-.64-5.76l-15.17.65,2.35-.37,2.17-.34,4-.62V40.93c.87,1.13,1.73,2.25,2.6,3.34a38.23,38.23,0,0,0,9,8.54L100.5,44c-.74-.41-1.47-.83-2.19-1.27h0c-.86-.52-1.7-1.06-2.53-1.62a41.12,41.12,0,0,1-7.59-6.5c-.52-.57-1-1.16-1.51-1.77l10.51-.57V22.53L83,24.43h0V14l-7.82,1.8-2.55.59,1.18,8.84-2.92.19-8.58.56c.24,3.06.47,5.9.71,8.93l7-1.86h0a41.87,41.87,0,0,1-8,8.43,56.13,56.13,0,0,1-5.68,4l6.31,7.11,5.48-5.94,5.69-6.14V52.82l-8.78.38-8.86.37h0l.66-1,1.83-2.74L48.6,47V39.63h0l5.22,3.87L56.27,40l2.46-3.54L48.47,31.27c.06-.2.11-.39.17-.58l10.57-.83V19.91L48.44,21.74h0V12.62l-5.39.79-5.31.77c.48,2.84.94,5.57,1.43,8.43L31.86,23l-7.1.34V33.87l11-3h0l.37.64L29.76,37l-6.33,5.46,6,7.87,9.67-10.92h0V52.07l1.68-.3,5.3-.94h0a35.37,35.37,0,0,1-3.35,3.52A37.39,37.39,0,0,1,38,58l-1.26.79c-3.4,2.08-6.87,4-10.41,6.1,2.08,1.79,4.12,3.48,6.08,5.22.66.58,1.31,1.17,2,1.76a3.29,3.29,0,0,0,.31.26.47.47,0,0,0,.09.06,1.07,1.07,0,0,0,.19.13l.1,0,.17.07.11,0,.15,0h.24l.15,0,.1,0,.17-.1.09,0,.28-.2,13.2-9.86c3.95-.18,7.91-.31,11.87-.35,1.8,0,3.61,0,5.42,0h9.53a31.31,31.31,0,0,1-4.43,4.28l-1.34,1a45.42,45.42,0,0,1-5.15,3.2,41.62,41.62,0,0,1-5.11,2.34h0S55.43,68.41,52,65.51c-.49-.42-1-.8-1.37-1.14l-4.8,4.32-1.72,1.55,1.61,1.65,4.85,5C42.18,79.54,34,79.56,25.76,79.62l1.06,2.78c1.05,2.76,2.08,5.44,3.08,8.13a3.66,3.66,0,0,0,.18.39l.05.08a1.12,1.12,0,0,0,.22.26l0,0a1.23,1.23,0,0,0,.25.14l.06,0a1.63,1.63,0,0,0,.34,0h.07a2.12,2.12,0,0,0,.48,0h0C33.43,91.06,35.32,90.85,37.18,90.52Z"/></g></g></g></svg>